<svg width="99" height="99" viewBox="0 0 99 99" fill="none" xmlns="http://www.w3.org/2000/svg">
<path d="M82.5 9.66573C82.5 6.23641 80.4374 4.13086 77.0856 4.12607C66.2802 4.12607 55.4748 4.12607 44.6693 4.12607C44.4209 4.12607 44.1724 4.11647 43.9287 4.15484C43.0427 4.28434 42.4614 4.94143 42.4567 5.80475C42.452 6.66808 43.0145 7.33955 43.9005 7.47864C44.1959 7.5266 44.5053 7.51222 44.81 7.51222C55.4748 7.51222 66.1442 7.51222 76.809 7.51222C78.7076 7.51222 79.1951 8.01582 79.1951 9.97749C79.1951 34.9611 79.1951 59.94 79.1951 84.9236C79.1951 86.8661 78.7029 87.3697 76.7856 87.3697C57.2139 87.3697 37.647 87.3697 18.0754 87.3697C16.1721 87.3697 15.6846 86.8661 15.6846 84.9092C15.6846 70.3047 15.6846 55.7001 15.6846 41.0907C15.6846 40.6974 15.6752 40.2946 15.5768 39.9204C15.3377 39.0283 14.5314 38.5823 13.6501 38.7885C12.8016 38.99 12.375 39.6423 12.375 40.7934C12.375 55.6809 12.375 70.5685 12.375 85.456C12.375 87.2978 13.0547 88.823 14.5736 89.8494C15.1549 90.2475 15.858 90.4537 16.5097 90.7463H78.3654C81.4781 89.4417 82.5 88.0844 82.5 85.197C82.5 60.0167 82.5 34.8412 82.5 9.66093V9.66573Z" fill="white"/>
<path d="M55.0564 28.0742C53.486 22.7504 46.7449 20.7215 42.5024 24.1844C39.4178 26.7025 38.7568 30.5107 39.6569 34.3765C39.9804 35.7722 40.8523 37.0336 41.4242 38.2518C39.9897 39.1871 38.2974 40.06 36.8864 41.2735C35.4519 42.5061 34.2847 44.0697 32.9955 45.499C32.9955 45.499 32.8877 45.379 32.7893 45.2495C30.8907 42.7651 29.625 39.9881 29.0671 36.8801C28.8421 35.6187 28.0218 35.0096 26.9904 35.2542C26.0576 35.4748 25.6028 36.3621 25.8185 37.5228C28.1249 49.8252 39.6522 57.8445 51.6296 55.4751C63.6023 53.1106 71.4497 41.0672 68.9745 28.8608C66.8556 18.4002 57.7894 10.8605 47.3543 10.9084C46.2573 10.9132 45.151 11.0187 44.0681 11.1962C43.1399 11.3497 42.6009 12.1698 42.7087 13.0188C42.8212 13.8965 43.4962 14.472 44.4478 14.472C44.776 14.472 45.1088 14.4049 45.437 14.4193C47.3543 14.4912 49.3232 14.3234 51.1842 14.7071C62.3881 17.0093 68.8714 28.9567 64.9805 39.9785C64.2492 42.0505 63.1944 43.9354 61.7178 45.6764C59.6645 42.1799 56.7862 39.7962 53.1578 38.3238C53.5891 37.7242 53.9969 37.2542 54.3016 36.7266C55.8861 33.9736 55.9377 31.0383 55.0657 28.079L55.0564 28.0742ZM42.6524 30.6354C42.7696 27.9111 44.8698 25.8104 47.448 25.82C50.0357 25.8295 52.1077 27.9255 52.2296 30.6546C52.2437 30.9615 52.2296 31.2733 52.2296 31.585C52.2343 34.5299 51.0061 36.4436 48.695 37.0959C45.8167 37.9065 42.9384 35.8393 42.6759 32.7457C42.6149 32.0455 42.6243 31.3356 42.6571 30.6354H42.6524ZM59.2379 48.0793C52.8672 53.8972 42.1789 53.9931 35.616 48.1225C38.1756 43.3598 42.0946 40.7219 47.4152 40.7123C52.7359 40.7027 56.6643 43.3263 59.2379 48.0793Z" fill="white"/>
<path d="M25.8665 31.8733C33.3155 31.926 39.4612 25.6957 39.494 18.0553C39.5315 10.4293 33.4327 4.15098 25.965 4.127C18.5114 4.10781 12.3844 10.3573 12.375 17.9929C12.3703 25.5902 18.4223 31.8205 25.8618 31.8733H25.8665ZM25.8993 7.51794C31.5388 7.49876 36.1703 12.1991 36.1891 17.9642C36.2078 23.734 31.6138 28.4679 25.9743 28.4919C20.3349 28.5111 15.7034 23.8108 15.6846 18.0457C15.6658 12.2758 20.2599 7.54192 25.8993 7.51794Z" fill="white"/>
<path d="M62.6839 61.9973C62.4636 61.9782 62.2433 61.9877 62.023 61.9877C54.635 61.9877 47.2517 61.9877 39.8637 61.9877C39.6152 61.9877 39.3668 61.9782 39.123 62.0069C38.2089 62.1268 37.576 62.8319 37.5901 63.7C37.6041 64.5489 38.2042 65.2156 39.0855 65.3403C39.3574 65.3787 39.634 65.3643 39.9105 65.3643C43.5764 65.3643 47.2423 65.3643 50.9082 65.3643C54.049 65.3643 57.1898 65.3643 60.3353 65.3643C61.1088 65.3643 61.8823 65.3931 62.6511 65.3547C63.6871 65.302 64.3434 64.6113 64.3294 63.652C64.3153 62.7264 63.6778 62.0741 62.6839 61.9925V61.9973Z" fill="white"/>
<path d="M62.3176 71.4662C58.5439 71.4614 54.7655 71.4662 50.9918 71.4662C48.9245 71.4662 46.8572 71.4662 44.7899 71.4662C42.9991 71.4662 41.2084 71.447 39.4176 71.4758C38.0675 71.495 37.2378 72.6413 37.7206 73.7972C38.091 74.6749 38.841 74.862 39.6989 74.8572C47.1947 74.8476 54.6905 74.8572 62.1863 74.8476C62.4864 74.8476 62.7957 74.838 63.0864 74.766C63.9443 74.5502 64.413 73.8212 64.3099 72.9291C64.1974 71.989 63.5036 71.471 62.3176 71.4662Z" fill="white"/>
<path d="M32.1735 62.0028C31.2969 61.998 30.5516 62.7606 30.5469 63.6719C30.5469 64.5832 31.2782 65.3554 32.1595 65.3602C33.0314 65.365 33.7908 64.5928 33.7955 63.6863C33.8002 62.7846 33.0549 62.0028 32.1782 61.998L32.1735 62.0028Z" fill="white"/>
<path d="M30.5392 73.1343C30.5298 74.0456 31.2564 74.8226 32.1377 74.837C33.0096 74.8514 33.7737 74.0792 33.7878 73.1775C33.8019 72.2758 33.0612 71.494 32.1799 71.4748C31.3033 71.4604 30.5485 72.223 30.5392 73.1295V73.1343Z" fill="white"/>
<path d="M12.3908 34.0552C12.3768 34.9281 13.1502 35.7387 14.0128 35.7531C14.866 35.7675 15.6582 34.9761 15.6723 34.0936C15.6863 33.2207 14.9129 32.4101 14.0503 32.3957C13.1971 32.3813 12.4049 33.1727 12.3908 34.0552Z" fill="white"/>
<path d="M22.586 22.6163C23.7111 23.7578 24.5033 23.7626 25.6237 22.6163C27.5785 20.6259 29.524 18.6306 31.4694 16.6354C31.6616 16.4387 31.8538 16.2277 32.0038 15.9927C32.4398 15.3212 32.3507 14.4483 31.821 13.8967C31.2819 13.3404 30.4334 13.2396 29.7771 13.6857C29.5052 13.8727 29.2662 14.1126 29.0318 14.3476C27.4145 15.9975 25.7972 17.6522 24.0533 19.4412C23.4814 18.8177 22.9939 18.2421 22.4641 17.7145C21.5875 16.8368 20.6218 16.7889 19.914 17.5467C19.2483 18.2613 19.3233 19.2445 20.1343 20.0983C20.9406 20.9472 21.7657 21.777 22.586 22.6115V22.6163Z" fill="white"/>
</svg>
