<svg width="91" height="99" viewBox="0 0 91 99" fill="none" xmlns="http://www.w3.org/2000/svg">
<path d="M90.8641 78.1344C90.8536 74.8621 88.8369 72.8114 85.5803 72.7564C85.0074 72.746 84.4372 72.7564 83.8042 72.7564C83.8042 71.391 83.8356 70.1852 83.799 68.9793C83.6813 65.1708 80.1526 62.4504 76.4853 63.4444C75.3998 63.7374 74.4294 64.4567 73.6133 64.8752C72.1197 64.2108 70.6627 63.5621 69.2057 62.9134L68.9991 63.1383V61.8854C68.9991 42.0503 68.9834 22.2151 69.0253 2.37994C69.0305 0.538463 68.51 -0.790333 66.781 -1.5332H2.5593C0.851223 -0.704014 0.364701 0.677097 0.375164 2.53427C0.435326 13.3556 0.403936 24.1795 0.406552 35.0008C0.406552 35.2938 0.390852 35.592 0.417009 35.8823C0.492866 36.7246 1.09449 37.3053 1.87398 37.3079C2.65347 37.3079 3.2577 36.7298 3.33617 35.8876C3.36233 35.5946 3.34664 35.299 3.34664 35.0061C3.34664 24.2161 3.34664 13.4262 3.34664 2.63629V1.46443H66.0642C66.0642 1.90126 66.0642 2.28316 66.0642 2.66767C66.0642 14.3391 66.0642 26.0131 66.0642 37.6846C66.0642 46.1517 66.0668 54.6215 66.0512 63.0886C66.0512 63.4784 66.0015 64.0486 65.753 64.2291C63.6865 65.7436 63.098 67.8231 63.2 70.2584C63.2732 71.9795 63.2131 73.7059 63.2131 75.4846H36.6267C36.6267 73.2456 36.6738 71.064 36.6162 68.8825C36.5221 65.2676 33.1007 62.5446 29.6034 63.3921C28.4211 63.6798 27.3461 64.4122 26.1402 64.9772C24.2909 63.2534 22.0126 62.6021 19.4648 63.7897C16.9249 64.9746 15.9283 67.1195 16.0434 69.8608C16.0827 70.792 16.0487 71.7284 16.0487 72.7538C15.4575 72.7538 15.0076 72.7538 14.5551 72.7538C10.9454 72.7721 8.99664 74.7261 8.99141 78.3332C8.99141 80.0569 8.99141 81.7807 8.99141 83.5568H3.34402V82.3143C3.34402 69.2356 3.34402 56.1569 3.34402 43.0782C3.34402 41.8384 2.82087 41.1844 1.86612 41.1897C0.937536 41.1949 0.411773 41.8331 0.411773 42.9998C0.409157 56.4368 0.406541 69.8765 0.411773 83.3135C0.411773 85.4035 1.61763 86.5728 3.71545 86.5728C5.41307 86.5728 7.11069 86.5361 8.80569 86.5728C9.12743 86.5806 9.56687 86.7794 9.74213 87.0331C10.8355 88.6183 12.3212 89.3794 14.2281 89.3559C14.8062 89.3481 15.3817 89.3559 16.0591 89.3559C16.0591 90.7239 16.0356 91.9586 16.0644 93.1932C16.1088 95.0791 16.9014 96.6303 18.429 97.7027C19.1849 98.2337 20.1161 98.511 20.9689 98.9034H22.9281C24.0999 98.3279 25.2718 97.7524 26.3338 97.2319C27.4298 97.7629 28.6042 98.3331 29.7813 98.9034H31.7405C32.4834 98.5816 33.2838 98.3514 33.9534 97.9198C35.6955 96.8029 36.5927 95.1472 36.6267 93.0755C36.6633 90.9567 36.6346 88.8354 36.6346 86.5806C37.0583 86.5806 37.4036 86.5806 37.7515 86.5806C40.5895 86.5806 43.4276 86.5858 46.2657 86.578C47.4376 86.5754 48.1019 86.0601 48.1333 85.1681C48.1673 84.2474 47.448 83.6457 46.2631 83.6431C43.1007 83.6353 39.9408 83.6405 36.7078 83.6405V78.5555H63.1372V83.5856C62.8103 83.6039 62.465 83.6353 62.1223 83.6379C59.2842 83.6431 56.4435 83.596 53.6081 83.6771C53.0509 83.6928 52.3055 84.0564 52.002 84.5011C51.3638 85.4428 52.1799 86.5623 53.4538 86.5728C56.2918 86.5963 59.1299 86.5806 61.968 86.5806C62.3237 86.5806 62.6821 86.5806 63.2157 86.5806C63.2157 87.0724 63.2157 87.5144 63.2157 87.9539C63.2157 89.5547 63.2052 91.1581 63.2183 92.759C63.2445 95.7723 64.7564 97.7995 67.6363 98.7203C67.7514 98.7569 67.8508 98.8432 67.958 98.906H70.1108C71.2774 98.3253 72.4467 97.7446 73.4694 97.2371C74.6099 97.7812 75.7869 98.3436 76.964 98.906H78.9232C79.0069 98.8563 79.0828 98.7857 79.1717 98.7595C82.2714 97.8335 83.8016 95.7959 83.812 92.5706C83.8147 91.5348 83.812 90.499 83.812 89.3559C84.4974 89.3559 85.0754 89.3638 85.6561 89.3559C88.7898 89.3088 90.8484 87.2372 90.8667 84.1061C90.8771 82.1129 90.8745 80.1197 90.8667 78.1265L90.8641 78.1344ZM16.0042 86.3583C15.1332 86.3583 14.2857 86.4629 13.4748 86.3295C12.5514 86.1778 11.9733 85.4977 11.955 84.5429C11.9132 82.2254 11.9132 79.9079 11.955 77.5929C11.9733 76.5649 12.7241 75.8273 13.7547 75.741C14.4635 75.6808 15.1803 75.7305 16.0042 75.7305V86.3583ZM24.8716 92.7642C24.8716 94.4331 23.8776 95.6781 22.3892 95.9345C21.0578 96.1647 19.6793 95.3904 19.198 94.0669C19.0358 93.6222 18.9966 93.1121 18.994 92.6308C18.9783 88.7778 18.9861 84.9248 18.9861 81.0719C18.9861 77.2189 18.9835 73.3659 18.9861 69.5129C18.9888 67.5145 20.1528 66.1805 21.8896 66.1621C23.6474 66.1438 24.8716 67.5223 24.8742 69.5495C24.8768 77.2869 24.8794 85.0269 24.8742 92.7642H24.8716ZM33.684 93.0153C33.6761 94.522 32.5932 95.7305 31.165 95.945C29.7578 96.1568 28.3557 95.2544 27.9424 93.8288C27.8352 93.46 27.8169 93.0572 27.8143 92.6701C27.8064 84.9327 27.8064 77.1953 27.8116 69.458C27.8116 67.4988 29.041 66.1464 30.7753 66.1621C32.5069 66.1778 33.6892 67.5276 33.6918 69.5103C33.6971 73.3633 33.6918 77.2163 33.6918 81.0666H33.6892C33.6892 85.0504 33.7049 89.0342 33.6814 93.0153H33.684ZM72.036 92.8479C72.0281 94.4514 71.0054 95.6808 69.5589 95.9345C68.2248 96.1699 66.8542 95.393 66.3572 94.0695C66.2133 93.6823 66.1584 93.2429 66.1558 92.827C66.1453 84.9798 66.1479 77.1326 66.1479 69.2853C66.1479 67.1614 67.4663 66.3557 69.0985 66.1909C70.6941 66.0314 72.0255 67.5066 72.036 69.3063C72.0569 73.2299 72.0412 77.1535 72.0412 81.0771C72.0412 85.0007 72.0543 88.9243 72.036 92.8479ZM80.8667 92.7668C80.8667 94.4357 79.8701 95.6781 78.3818 95.9345C77.0503 96.1647 75.6719 95.3904 75.1932 94.0642C75.031 93.6196 74.9918 93.1095 74.9892 92.6282C74.9735 88.7752 74.9813 84.9222 74.9813 81.0692C74.9813 77.2163 74.9787 73.3633 74.9813 69.5103C74.9839 67.5119 76.1505 66.1778 77.8874 66.1621C79.6478 66.1464 80.8693 67.5249 80.8693 69.5521C80.8719 77.2895 80.8746 85.0295 80.8693 92.7668H80.8667ZM87.9109 84.3912C87.89 85.5605 87.1 86.3321 85.936 86.4027C85.2638 86.442 84.5863 86.4106 83.8591 86.4106V75.7488C84.6805 75.7488 85.46 75.6834 86.2211 75.7645C87.1942 75.8665 87.8926 76.6853 87.9083 77.7368C87.9423 79.9549 87.9449 82.1757 87.9083 84.3938L87.9109 84.3912Z" fill="white"/>
<path d="M30.9785 22.601C31.2976 22.6507 31.6298 22.6297 31.9542 22.6297C36.0609 22.6297 40.165 22.6297 44.2717 22.6297C48.3784 22.6297 52.6133 22.6297 56.7854 22.6297C57.0784 22.6297 57.3739 22.6428 57.6643 22.6114C58.449 22.5251 58.9198 22.083 58.9774 21.2879C59.0402 20.443 58.5981 19.9251 57.7951 19.7419C57.4838 19.6713 57.1464 19.6896 56.822 19.6896C48.5118 19.6896 40.2016 19.687 31.894 19.6896C31.5069 19.6896 31.1014 19.6949 30.7379 19.8021C30.0211 20.014 29.6889 20.5528 29.7491 21.2957C29.8093 22.0438 30.2461 22.4859 30.9785 22.5983V22.601Z" fill="white"/>
<path d="M58.9307 41.8833C58.7476 41.3942 58.1983 41.0044 57.7406 40.6696C57.547 40.5284 57.1703 40.633 56.8774 40.633C52.7053 40.633 48.5358 40.633 44.3637 40.633C40.1916 40.633 36.0221 40.633 31.85 40.633C31.5884 40.633 31.3268 40.6173 31.0679 40.6461C30.2857 40.735 29.8175 41.1745 29.7495 41.967C29.6815 42.7648 30.0896 43.2854 30.8324 43.4972C31.1673 43.594 31.5413 43.5731 31.8997 43.5731C40.2099 43.5757 48.5201 43.5783 56.8303 43.5705C57.2462 43.5705 57.6882 43.5548 58.0754 43.4214C58.7816 43.1755 59.1818 42.5582 58.9307 41.8859V41.8833Z" fill="white"/>
<path d="M29.757 28.3055C29.8747 29.1269 30.4397 29.5245 31.5749 29.5271C35.8438 29.5349 40.1127 29.5297 44.3816 29.5297C48.4883 29.5297 52.5924 29.5297 56.6991 29.5297C58.3392 29.5297 58.9852 29.119 58.9905 28.078C58.9957 27.0343 58.3156 26.587 56.7174 26.587C48.4726 26.587 40.2304 26.587 31.9856 26.587C31.6298 26.587 31.2636 26.5818 30.9158 26.6524C30.0839 26.8198 29.6393 27.479 29.757 28.3029V28.3055Z" fill="white"/>
<path d="M57.6643 47.5275C57.4419 47.4935 57.2091 47.5118 56.9816 47.5118C48.5746 47.5118 40.165 47.5118 31.758 47.5118C31.4964 47.5118 31.2296 47.483 30.9785 47.5353C30.2252 47.6949 29.7622 48.1474 29.7465 48.9505C29.7308 49.7535 30.1755 50.2322 30.9236 50.41C31.2349 50.4833 31.5723 50.4493 31.8966 50.4493C36.0347 50.4493 40.1754 50.4493 44.3135 50.4493C48.4516 50.4493 52.6578 50.4493 56.8273 50.4493C57.1202 50.4493 57.421 50.4781 57.7061 50.4257C58.5092 50.2766 58.9983 49.8032 58.9852 48.9557C58.9722 48.1082 58.4752 47.6504 57.6643 47.5223V47.5275Z" fill="white"/>
<path d="M11.1765 47.0975C11.9795 48.0392 12.8087 48.9626 13.6614 49.8598C14.4357 50.6759 15.2753 50.6628 16.0156 49.8284C16.578 49.1954 17.088 48.5179 17.619 47.8561C19.4187 45.6223 21.2288 43.3989 23.0101 41.1493C23.8628 40.0717 23.4626 38.6853 22.2515 38.6356C21.7388 38.6147 21.0535 38.9783 20.7082 39.389C18.715 41.7562 16.8003 44.1888 14.7757 46.7026C14.2421 46.1193 13.8001 45.5961 13.3188 45.1174C12.6491 44.453 11.8513 44.4216 11.2288 44.9945C10.6298 45.5464 10.5801 46.3913 11.1791 47.0949L11.1765 47.0975Z" fill="white"/>
<path d="M13.4545 28.7282C14.4877 29.8477 15.3012 29.8216 16.2742 28.621C18.4924 25.8797 20.7 23.1279 22.9103 20.3814C23.0542 20.2035 23.2007 20.023 23.3053 19.8242C23.682 19.1127 23.5355 18.4693 22.926 17.988C22.3113 17.5041 21.6443 17.5355 21.0558 18.0664C20.7681 18.328 20.5352 18.6498 20.2894 18.9558C18.4662 21.2132 16.6483 23.4732 14.778 25.796C14.3124 25.2911 13.9017 24.8334 13.478 24.3887C12.7456 23.6223 11.8824 23.5072 11.2415 24.0774C10.5719 24.6738 10.6085 25.5684 11.354 26.4054C12.0472 27.1875 12.7482 27.9644 13.4545 28.7308V28.7282Z" fill="white"/>
</svg>
