<svg width="58" height="58" viewBox="0 0 58 58" fill="none" xmlns="http://www.w3.org/2000/svg">
<path d="M23.224 31.0299L14.6207 37.8691C14.3633 38.0384 14.0742 38.1535 13.7709 38.2075C13.4676 38.2615 13.1565 38.2533 12.8565 38.1833C12.8565 38.1833 2.17488 38.1833 3.79405 31.4166C3.92619 30.8562 4.27514 30.3711 4.76439 30.0676C5.25365 29.7641 5.84328 29.6669 6.40405 29.7974L12.929 31.3441C12.929 31.3441 20.469 24.0941 28.9999 24.0941C37.5307 24.0941 45.0224 31.3441 45.0224 31.3441L51.5474 29.7974C52.1081 29.6669 52.6978 29.7641 53.187 30.0676C53.6763 30.3711 54.0252 30.8562 54.1574 31.4166C55.7765 38.2074 45.0949 38.2075 45.0949 38.2075C44.7949 38.2774 44.4838 38.2857 44.1805 38.2317C43.8772 38.1777 43.5881 38.0625 43.3307 37.8933L34.7274 31.0541C34.7494 33.4173 35.0909 35.7666 35.7424 38.0383C37.3857 40.8416 41.8324 42.0258 45.1915 44.6599C49.0099 47.6324 47.1007 53.9641 39.2949 50.3875C35.9796 48.8647 32.5341 47.6434 28.9999 46.7383C25.4401 47.6258 21.9696 48.8393 18.6324 50.3633C10.8265 53.94 8.96571 47.6083 12.7357 44.6358C16.0949 42.0016 20.5415 40.8174 22.1849 38.0141C22.8446 35.7436 23.1941 33.3942 23.224 31.0299Z" stroke="white" stroke-width="2" stroke-linecap="round" stroke-linejoin="round"/>
<path d="M35.7184 45.53C29.8071 46.2073 24.045 47.8396 18.6567 50.3634" stroke="white" stroke-width="2" stroke-linecap="round" stroke-linejoin="round"/>
<path d="M29 18.1009C32.1899 18.1009 34.7758 15.5149 34.7758 12.325C34.7758 9.13512 32.1899 6.54919 29 6.54919C25.8101 6.54919 23.2241 9.13512 23.2241 12.325C23.2241 15.5149 25.8101 18.1009 29 18.1009Z" stroke="white" stroke-width="2" stroke-linecap="round" stroke-linejoin="round"/>
</svg>
