<svg width="58" height="58" viewBox="0 0 58 58" fill="none" xmlns="http://www.w3.org/2000/svg">
<path d="M28.3698 54.3991C19.1865 54.0607 11.8398 47.5841 11.8398 38.3282C11.8398 29.0724 20.6123 22.9341 20.6123 22.7166H37.529C37.529 22.9341 46.2773 28.8307 46.2773 38.3282C46.2773 47.8257 39.0273 54.0607 29.7715 54.3991H28.4423H28.3698Z" stroke="white" stroke-width="2" stroke-linecap="round" stroke-linejoin="round"/>
<path d="M28.3698 54.3991C19.1865 54.0607 11.8398 47.5841 11.8398 38.3282C11.8398 29.0724 20.6123 22.9341 20.6123 22.7166H31.1732C34.8158 27.134 36.9347 32.6095 37.2148 38.3282C37.0935 41.3721 36.3662 44.3612 35.0757 47.1207C33.7852 49.8801 31.9573 52.3545 29.699 54.3991H28.3698Z" stroke="white" stroke-width="2" stroke-linecap="round" stroke-linejoin="round"/>
<path d="M37.458 22.7166C37.458 22.9341 46.2063 28.8307 46.2063 38.3282C46.2063 47.8257 38.9563 54.0607 29.7005 54.3991H28.3713C26.113 52.3545 24.2851 49.8801 22.9946 47.1207C21.7041 44.3612 20.9769 41.3721 20.8555 38.3282C21.1012 32.6235 23.1772 27.1495 26.7763 22.7166H37.458Z" stroke="white" stroke-width="2" stroke-linecap="round" stroke-linejoin="round"/>
<path d="M20.6133 22.7166C20.6133 20.4733 21.5044 18.3219 23.0907 16.7357C24.6769 15.1494 26.8283 14.2583 29.0716 14.2583C31.3149 14.2583 33.4663 15.1494 35.0526 16.7357C36.6388 18.3219 37.5299 20.4733 37.5299 22.7166H20.6133Z" stroke="white" stroke-width="2" stroke-linecap="round" stroke-linejoin="round"/>
<path d="M29 14.2825V3.67334" stroke="white" stroke-width="2" stroke-linecap="round" stroke-linejoin="round"/>
</svg>
