<svg width="48" height="61" viewBox="0 0 48 61" fill="none" xmlns="http://www.w3.org/2000/svg">
<path d="M37.7969 42.8903C37.7969 50.8301 30.3985 59.3111 22.8197 59.3111C15.2409 59.3111 8.02295 50.8301 8.02295 42.8903C8.02295 34.9506 20.6543 26.8304 22.8197 26.8304C24.9851 26.8304 37.7969 34.9506 37.7969 42.8903Z" stroke="white" stroke-width="1.8" stroke-linecap="round" stroke-linejoin="round"/>
<path d="M8.02318 42.8904C8.02318 42.8904 -3.70595 28.9959 3.15108 21.0562C10.0081 13.1165 26.2485 9.14661 26.2485 9.14661" stroke="white" stroke-width="1.8" stroke-linecap="round" stroke-linejoin="round"/>
<path d="M2.06836 22.6801C2.06836 22.6801 4.23374 0.124122 20.6545 1.02636C28.9551 1.56771 31.8423 5.53756 32.925 9.32698C33.3094 11.2039 33.2131 13.1474 32.6453 14.9772C32.0774 16.8069 31.0564 18.4635 29.6769 19.793L22.8199 26.8304" stroke="white" stroke-width="1.8" stroke-linecap="round" stroke-linejoin="round"/>
<path d="M33.1055 10.2292C33.1055 10.2292 47 14.7405 47 25.3869C46.8195 32.7853 37.7971 42.8904 37.7971 42.8904" stroke="white" stroke-width="1.8" stroke-linecap="round" stroke-linejoin="round"/>
</svg>
