<svg width="60" height="60" viewBox="0 0 60 60" fill="none" xmlns="http://www.w3.org/2000/svg">
<g clip-path="url(#clip0_2083_1322)">
<path d="M10.3377 22.5C11.0383 21.4098 12.0357 20.5424 13.2127 20C14.0663 19.4994 15.0206 19.1948 16.0064 19.1083C16.9923 19.0218 17.985 19.1556 18.9127 19.5C19.6759 19.841 20.3208 20.4007 20.7658 21.1082C21.2108 21.8158 21.436 22.6395 21.4127 23.475C23.4586 23.7732 25.3147 24.8377 26.6052 26.4531C27.8956 28.0684 28.5239 30.1138 28.3627 32.175C28.4531 33.3559 28.2866 34.5423 27.8747 35.6527C27.4628 36.763 26.8153 37.771 25.9767 38.6072C25.1381 39.4435 24.1283 40.0881 23.0167 40.4969C21.9052 40.9056 20.7183 41.0687 19.5377 40.975C15.3627 40.975 11.7627 40.975 10.1377 37.475C9.46899 35.7824 9.1624 33.9684 9.23772 32.15V31.95V26.1C9.25696 24.8202 9.63835 23.572 10.3377 22.5Z" stroke="white" stroke-width="2" stroke-linecap="round" stroke-linejoin="round"/>
<path d="M3.0625 25.0249V34.9749" stroke="white" stroke-width="2" stroke-linecap="round" stroke-linejoin="round"/>
<path d="M54.7643 26.1V31.95V32.15C54.8431 33.9767 54.5365 35.7996 53.8643 37.5C52.2393 41 48.6393 41 44.4643 41C43.2976 41.0641 42.1306 40.8781 41.0417 40.4545C39.9527 40.0309 38.9668 39.3794 38.1501 38.5438C37.3334 37.7082 36.7047 36.7076 36.3062 35.6092C35.9076 34.5108 35.7485 33.3399 35.8393 32.175C35.6715 30.1097 36.2967 28.058 37.5878 26.4372C38.8788 24.8165 40.7387 23.7483 42.7893 23.45C42.7552 22.6282 42.9618 21.8143 43.3837 21.1082C43.8056 20.4021 44.4244 19.8345 45.1643 19.475C46.092 19.1306 47.0847 18.9968 48.0706 19.0833C49.0564 19.1697 50.0107 19.4743 50.8643 19.975C52.0286 20.5206 53.0135 21.3863 53.7041 22.4709C54.3947 23.5555 54.7624 24.8142 54.7643 26.1Z" stroke="white" stroke-width="2" stroke-linecap="round" stroke-linejoin="round"/>
</g>
<defs>
<clipPath id="clip0_2083_1322">
<rect width="60" height="60" fill="white"/>
</clipPath>
</defs>
</svg>
