<svg width="60" height="54" viewBox="0 0 60 54" fill="none" xmlns="http://www.w3.org/2000/svg">
<path d="M22.9033 14.9137H13.3159V32.668H22.9033V14.9137Z" stroke="white" stroke-width="1.8" stroke-miterlimit="10" stroke-linecap="round" stroke-linejoin="round"/>
<path d="M21.6603 14.9136H14.5586V11.8066C14.5586 11.1852 15.0912 10.6526 15.7126 10.6526H20.4175C21.0389 10.6526 21.5716 11.1852 21.5716 11.8066V14.9136H21.6603Z" stroke="white" stroke-width="1.8" stroke-miterlimit="10" stroke-linecap="round" stroke-linejoin="round"/>
<path d="M20.6842 7.9895H15.3579V10.6527H20.6842V7.9895Z" stroke="white" stroke-width="1.8" stroke-miterlimit="10" stroke-linecap="round" stroke-linejoin="round"/>
<path d="M20.3287 7.98949H15.8901V3.5509C17.3105 4.70494 18.8196 4.70494 20.3287 3.5509V7.98949Z" stroke="white" stroke-width="1.8" stroke-miterlimit="10" stroke-linecap="round" stroke-linejoin="round"/>
<path d="M18.1097 6.92419C18.4529 6.92419 18.7311 6.64599 18.7311 6.3028C18.7311 5.9596 18.4529 5.6814 18.1097 5.6814C17.7665 5.6814 17.4883 5.9596 17.4883 6.3028C17.4883 6.64599 17.7665 6.92419 18.1097 6.92419Z" fill="white"/>
<path d="M19.9736 17.488V19.7073" stroke="white" stroke-width="1.3" stroke-miterlimit="10" stroke-linecap="round" stroke-linejoin="round"/>
<path d="M19.9736 22.4592V28.9396" stroke="white" stroke-width="1.3" stroke-miterlimit="10" stroke-linecap="round" stroke-linejoin="round"/>
<path d="M16.5724 44.8462L30.5129 26.9603C31.3479 25.9512 32.3916 25.1348 33.5721 24.5673C34.7526 23.9997 36.0419 23.6945 37.3516 23.6725H53.6593C54.5275 23.6783 55.3775 23.9227 56.1161 24.3791C56.8548 24.8354 57.4538 25.4861 57.8475 26.26C58.2412 27.0339 58.4145 27.9011 58.3485 28.7669C58.2825 29.6326 57.9797 30.4635 57.4732 31.1688L43.5327 50.3698C42.9337 51.1689 42.1605 51.8211 41.2718 52.2768C40.3831 52.7326 39.4022 52.9799 38.4037 53H21.1754C19.7453 53 18.3738 52.4319 17.3626 51.4207C16.3514 50.4095 15.7833 49.038 15.7833 47.608C15.7658 46.8889 15.8923 46.1736 16.1554 45.5041C16.4185 44.8347 16.8129 44.2246 17.3154 43.7099C17.8178 43.1952 18.4182 42.7862 19.0811 42.5071C19.744 42.2279 20.4561 42.0842 21.1754 42.0844H37.7461C38.6998 42.1185 39.603 42.5214 40.2654 43.2084C40.9277 43.8953 41.2976 44.8125 41.297 45.7668C41.2976 46.721 40.9277 47.6383 40.2654 48.3252C39.603 49.0121 38.6998 49.4151 37.7461 49.4492H20.6493C20.4133 49.4499 20.1797 49.4017 19.9632 49.3077C19.7467 49.2136 19.552 49.0758 19.3914 48.9028C19.2308 48.7299 19.1078 48.5255 19.03 48.3027C18.9523 48.0798 18.9215 47.8433 18.9397 47.608C18.9397 47.1545 19.1198 46.7197 19.4404 46.399C19.7611 46.0784 20.1959 45.8983 20.6493 45.8983H37.7461" stroke="white" stroke-width="1.8" stroke-miterlimit="10" stroke-linecap="round"/>
</svg>
