<svg width="49" height="49" viewBox="0 0 49 49" fill="none" xmlns="http://www.w3.org/2000/svg">
<g clip-path="url(#clip0_2083_1345)">
<path d="M48.3895 16.6714C47.9424 18.0257 47.0845 18.9861 45.659 19.4275C46.3271 20.3072 46.6697 21.243 46.7314 22.3031C46.8633 24.5761 45.0241 26.8131 42.77 27.112C41.0978 27.3332 39.696 26.8311 38.5154 25.6486C37.1326 24.2629 35.7479 22.8802 34.3632 21.4964C34.2417 21.3749 34.1155 21.2592 34.0159 21.1652C29.7564 25.4218 25.517 29.6584 21.2405 33.932C21.3221 34.0184 21.4341 34.1427 21.5518 34.2614C22.9687 35.6793 24.3971 37.0858 25.8026 38.5151C27.5271 40.2689 27.7378 42.821 26.3417 44.7352C24.8583 46.7691 21.9864 47.2607 19.8909 45.8419C19.777 45.765 19.6574 45.6957 19.6204 45.672C19.2057 46.2566 18.8887 46.8982 18.399 47.3556C16.8102 48.8419 14.6226 48.7327 13.014 47.1525C12.1703 46.324 11.3417 45.4812 10.4667 44.6043C9.87067 45.206 9.29933 45.7868 8.72325 46.3629C7.256 47.8301 5.64733 47.8245 4.16963 46.3496C3.42082 45.6027 2.66916 44.8586 1.92699 44.1051C0.601148 42.7593 0.607791 41.0975 1.94313 39.7545C2.54388 39.1509 3.15698 38.5597 3.7957 37.9323C2.94059 37.0782 2.11586 36.2534 1.28922 35.4315C0.683716 34.8289 0.233859 34.138 0.069671 33.2867C-0.275789 31.4882 0.689411 29.7229 2.38919 29.0367C2.50402 28.9902 2.62076 28.9466 2.75932 28.8925C2.5306 28.4673 2.26201 28.0782 2.09972 27.6502C1.38982 25.7843 1.67834 24.0589 3.04784 22.6078C4.30535 21.2753 5.88934 20.8634 7.67738 21.3085C8.57425 21.5315 9.31642 22.0175 9.96368 22.6685C11.4547 24.168 12.9532 25.659 14.4063 27.1101C18.6609 22.8517 22.9051 18.6046 27.1797 14.3262C27.1456 14.2902 27.0307 14.1649 26.9102 14.0444C25.4932 12.6265 24.0649 11.2199 22.6612 9.78875C20.9757 8.06999 20.7413 5.61096 22.05 3.68246C23.4755 1.58312 26.4452 1.01938 28.5464 2.44962C28.6631 2.52934 28.7827 2.60432 28.926 2.69828C28.9725 2.6271 29.0266 2.57205 29.0494 2.50562C29.4641 1.3041 30.2927 0.523018 31.479 0.100683C31.5321 0.0817021 31.5758 0.036147 31.6233 0.00292969C32.2867 0.00292969 32.9491 0.00292969 33.6125 0.00292969C34.6128 0.341746 35.3635 1.02318 36.0744 1.76914C36.6932 2.41925 37.3357 3.04753 38.001 3.71852C38.6444 3.06841 39.2471 2.44677 39.8621 1.83937C41.1889 0.528712 42.8393 0.529661 44.1756 1.84222C44.9633 2.61666 45.7435 3.39964 46.5207 4.18451C47.8732 5.55022 47.8703 7.20444 46.5169 8.5673C45.919 9.16996 45.3154 9.76692 44.6796 10.3999C45.2983 11.0121 45.8868 11.6053 46.4875 12.1842C47.2724 12.9396 48.0373 13.7065 48.3895 14.7789V16.6733V16.6714ZM23.1016 6.22975C23.1054 7.27277 23.523 7.97983 24.1522 8.60811C29.3683 13.8128 34.5767 19.0251 39.7881 24.2335C39.9437 24.3892 40.106 24.541 40.2778 24.6786C41.5998 25.7368 43.6175 25.3487 44.4575 23.8776C45.1541 22.6571 44.9273 21.3436 43.815 20.2304C38.5951 15.0077 33.3724 9.78685 28.1506 4.56604C28.0168 4.43222 27.8763 4.3041 27.7283 4.18736C26.8153 3.46512 25.8055 3.32941 24.7577 3.80868C23.6862 4.2984 23.1642 5.19242 23.1006 6.22975H23.1016ZM6.37716 23.0187C5.37305 23.0728 4.51794 23.5293 3.98077 24.4936C3.31548 25.6884 3.55559 26.9801 4.63563 28.0602C9.86688 33.2943 15.101 38.5255 20.3351 43.7568C20.4793 43.901 20.635 44.0358 20.7944 44.1649C21.9238 45.0722 23.634 44.9336 24.6059 43.8583C25.6944 42.6539 25.6176 41.0187 24.3942 39.7887C22.2237 37.6078 20.0447 35.4363 17.8694 33.2601C14.8011 30.1918 11.7299 27.1272 8.66821 24.0532C8.05131 23.4335 7.349 23.0396 6.37716 23.0187ZM19.8359 32.4325C24.0554 28.213 28.3006 23.9678 32.4812 19.7872C31.1962 18.5002 29.8751 17.1791 28.6327 15.9349C24.4312 20.1355 20.188 24.3768 15.9874 28.5755C17.2516 29.8425 18.5632 31.1579 19.8359 32.4335V32.4325ZM44.8295 17.6261C44.8694 17.6195 45.0288 17.61 45.1788 17.5682C46.6137 17.1763 47.0541 15.4774 45.9807 14.3708C44.6947 13.0459 43.3746 11.7543 42.0696 10.4483C39.4027 7.78147 36.7397 5.10985 34.0652 2.44962C33.2243 1.61349 32.0921 1.58407 31.3177 2.34238C30.5613 3.0836 30.5423 4.26423 31.3309 5.0567C35.318 9.05986 39.3164 13.0516 43.3129 17.0453C43.6973 17.4287 44.1585 17.6432 44.8295 17.6261ZM3.81943 30.6767C2.92256 30.6815 2.20507 31.2205 1.96875 32.0273C1.74003 32.8093 1.99248 33.4499 2.54578 34.0042C6.49674 37.9542 10.4468 41.9051 14.3977 45.8542C14.4974 45.9538 14.6046 46.0497 14.7194 46.1323C15.1627 46.454 15.6581 46.585 16.1952 46.4644C16.9108 46.3031 17.4119 45.8808 17.6264 45.1661C17.8504 44.4173 17.6578 43.7653 17.1111 43.2167C15.5954 41.6973 14.0769 40.1807 12.5594 38.6631C10.1383 36.2421 7.71439 33.8219 5.29712 31.3971C4.86815 30.9671 4.39456 30.6606 3.81943 30.6767ZM39.4483 5.0083C40.7561 6.31801 42.0744 7.63911 43.3917 8.95736C44.0351 8.32813 44.7299 7.68846 45.3752 7.00324C45.7615 6.59324 45.7349 6.10352 45.3316 5.68688C44.466 4.79191 43.5853 3.91118 42.6894 3.04753C42.2832 2.65557 41.8077 2.62235 41.4129 2.99533C40.7172 3.65209 40.0728 4.36294 39.4483 5.0083ZM5.10067 39.3502C4.44107 39.9909 3.73212 40.6372 3.07536 41.3319C2.71282 41.7153 2.73085 42.1842 3.10099 42.5704C3.98362 43.492 4.88998 44.3907 5.80582 45.28C6.12851 45.5932 6.58501 45.7147 6.92192 45.3939C7.6546 44.6944 8.32085 43.9247 8.9757 43.2253C7.71724 41.9668 6.40563 40.6552 5.10162 39.3502H5.10067Z" fill="white"/>
<path d="M41.6054 20.9241C41.6016 21.8238 40.8442 22.2698 40.2235 21.9149C40.0489 21.8152 39.8971 21.6681 39.7528 21.5239C36.3466 18.1215 32.9432 14.7172 29.5418 11.31C29.3985 11.1658 29.2571 11.0111 29.1517 10.8383C28.9334 10.4787 29.0103 9.99463 29.3207 9.7156C29.649 9.42139 30.0258 9.3654 30.4111 9.58558C30.5858 9.68523 30.7357 9.83519 30.88 9.97944C34.2862 13.3818 37.6924 16.7833 41.0881 20.1961C41.3311 20.44 41.4934 20.7627 41.6044 20.9231L41.6054 20.9241Z" fill="white"/>
<path d="M27.2842 8.64052C26.7754 8.64242 26.3398 8.2191 26.336 7.71794C26.3322 7.21773 26.765 6.78681 27.2737 6.78396C27.7863 6.78016 28.2115 7.19875 28.2144 7.7075C28.2172 8.2172 27.7977 8.63768 27.2842 8.63958V8.64052Z" fill="white"/>
<path d="M10.4672 28.8099C10.8155 29.0501 11.1268 29.2038 11.3602 29.4354C14.0366 32.0937 16.7006 34.7644 19.3684 37.4322C20.1495 38.2133 20.9505 38.9773 21.7003 39.7868C21.9157 40.0194 22.1056 40.3876 22.0989 40.6894C22.0828 41.4012 21.2504 41.7561 20.6582 41.3528C20.5168 41.256 20.3925 41.1298 20.2701 41.0073C16.8648 37.604 13.4605 34.2006 10.0581 30.7944C9.92525 30.6616 9.73448 30.5258 9.70127 30.3645C9.63863 30.0618 9.57124 29.6907 9.69178 29.4373C9.81136 29.1858 10.1606 29.0444 10.4672 28.8099Z" fill="white"/>
<path d="M8.72388 27.2136C8.71724 27.7252 8.28916 28.1429 7.78136 28.1343C7.27261 28.1258 6.85877 27.6958 6.86732 27.1833C6.87586 26.6764 7.31437 26.2455 7.81079 26.2559C8.31099 26.2664 8.73052 26.7058 8.72388 27.2136Z" fill="white"/>
</g>
<defs>
<clipPath id="clip0_2083_1345">
<rect width="48.391" height="48.4061" fill="white"/>
</clipPath>
</defs>
</svg>
