<svg width="58" height="58" viewBox="0 0 58 58" fill="none" xmlns="http://www.w3.org/2000/svg">
<path d="M45.2398 42.8716H25.7373C24.9577 42.8716 24.1858 42.7177 23.4659 42.4186C22.746 42.1196 22.0922 41.6813 21.5421 41.1289C20.9919 40.5766 20.5563 39.921 20.2602 39.1999C19.9641 38.4787 19.8133 37.7062 19.8165 36.9266C19.8181 35.9163 20.0761 34.9229 20.5664 34.0395C21.0567 33.1561 21.7633 32.4116 22.6198 31.8758L49.8556 15.1283H52.2723V42.8716H56.7915" stroke="white" stroke-width="2" stroke-miterlimit="10"/>
<path d="M26.7539 38.256L36.2514 31.9485C37.5193 31.1037 38.4738 29.8649 38.9674 28.4235C39.461 26.982 39.4662 25.4182 38.9822 23.9735L38.3539 22.0643" stroke="white" stroke-width="2" stroke-miterlimit="10"/>
<path d="M9.40083 42.8716C12.5907 42.8716 15.1767 40.2857 15.1767 37.0958C15.1767 33.9059 12.5907 31.3199 9.40083 31.3199C6.21093 31.3199 3.625 33.9059 3.625 37.0958C3.625 40.2857 6.21093 42.8716 9.40083 42.8716Z" stroke="white" stroke-width="2" stroke-miterlimit="10"/>
</svg>
