<svg width="61" height="61" viewBox="0 0 61 61" fill="none" xmlns="http://www.w3.org/2000/svg">
<path d="M52.2306 20.7909V47.4784H18.2486L5.2098 34.4397C4.73083 33.9624 4.35056 33.3954 4.09071 32.7712C3.83085 32.1469 3.6965 31.4776 3.69532 30.8014C3.69294 29.4358 4.23314 28.1251 5.19709 27.1578C6.16104 26.1905 7.46978 25.6457 8.8354 25.6433C10.201 25.6409 11.5116 26.1812 12.479 27.1451L14.1056 28.7972C14.4623 29.0898 14.8918 29.2799 15.3482 29.347C15.8047 29.4141 16.2707 29.3557 16.6965 29.1781C17.1223 29.0004 17.4917 28.7103 17.7651 28.3387C18.0385 27.9672 18.2056 27.5282 18.2486 27.0689V21.5026C18.2149 19.1782 18.6436 16.8704 19.5099 14.7132C20.3761 12.556 21.6626 10.5926 23.2944 8.93709C24.9263 7.28156 26.871 5.96698 29.0155 5.06979C31.16 4.1726 33.4615 3.71069 35.7861 3.71094C40.1916 3.86225 44.3668 5.71603 47.4337 8.88244C50.5006 12.0488 52.2201 16.2811 52.2306 20.6893V20.7909Z" stroke="white" stroke-width="2" stroke-miterlimit="10"/>
<path d="M52.2067 47.4783H18.25V57.1874H52.2067V47.4783Z" stroke="white" stroke-width="2" stroke-miterlimit="10"/>
</svg>
