<svg width="61" height="61" viewBox="0 0 61 61" fill="none" xmlns="http://www.w3.org/2000/svg">
<path d="M8.46488 59.7292V13.5471C8.46153 12.27 8.7102 11.0047 9.19664 9.82377C9.68307 8.64287 10.3977 7.56954 11.2996 6.66526C12.2015 5.76099 13.273 5.04354 14.4526 4.55402C15.6323 4.0645 16.8969 3.81253 18.174 3.81253H30.3232C31.6025 3.80918 32.8699 4.05868 34.0524 4.5467C35.235 5.03473 36.3095 5.75164 37.2141 6.65625C38.1187 7.56086 38.8356 8.63532 39.3236 9.81789C39.8116 11.0005 40.0611 12.2678 40.0578 13.5471" stroke="white" stroke-width="2" stroke-miterlimit="10"/>
<path d="M27.9062 18.4017L40.0554 13.5471L52.2046 18.4017V25.6963H27.9062V18.4017Z" stroke="white" stroke-width="2" stroke-miterlimit="10"/>
<path d="M30.3203 32.9907V37.8453" stroke="white" stroke-width="2" stroke-miterlimit="10"/>
<path d="M40.0586 32.9907V37.8453" stroke="white" stroke-width="2" stroke-miterlimit="10"/>
<path d="M49.793 32.9907V37.8453" stroke="white" stroke-width="2" stroke-miterlimit="10"/>
<path d="M30.3203 52.4346V57.2892" stroke="white" stroke-width="2" stroke-miterlimit="10"/>
<path d="M40.0586 52.4346V57.2892" stroke="white" stroke-width="2" stroke-miterlimit="10"/>
<path d="M49.793 52.4346V57.2892" stroke="white" stroke-width="2" stroke-miterlimit="10"/>
<path d="M35.2031 42.7V47.58" stroke="white" stroke-width="2" stroke-miterlimit="10"/>
<path d="M44.9102 42.7V47.58" stroke="white" stroke-width="2" stroke-miterlimit="10"/>
<path d="M1.16797 49.9946H15.7571" stroke="white" stroke-width="2" stroke-miterlimit="10"/>
</svg>
