<svg width="48" height="63" viewBox="0 0 48 63" fill="none" xmlns="http://www.w3.org/2000/svg">
<g clip-path="url(#clip0_2060_1103)">
<path d="M16.7358 3.9375H26.5536C28.5048 3.9375 30.3761 4.73123 31.7558 6.14408C33.1355 7.55694 33.9106 9.47317 33.9106 11.4712V24.0187C33.9106 25.6687 33.5928 27.3025 32.9754 28.8265C32.358 30.3506 31.4532 31.735 30.3127 32.9005C29.1722 34.066 27.8184 34.9896 26.3288 35.6187C24.8392 36.2477 23.2432 36.5697 21.6319 36.5662C18.3822 36.5662 15.2656 35.2443 12.9677 32.8912C10.6698 30.5381 9.37891 27.3466 9.37891 24.0187V11.4712C9.37891 9.47317 10.154 7.55694 11.5337 6.14408C12.9134 4.73123 14.7847 3.9375 16.7358 3.9375Z" stroke="white" stroke-width="2" stroke-miterlimit="10"/>
<path d="M9.37891 13.9912H33.9106C33.9106 14.9828 33.7194 15.9646 33.3481 16.8803C32.9768 17.7961 32.4326 18.6278 31.7467 19.3277C31.0608 20.0276 30.2468 20.582 29.3512 20.959C28.4557 21.3361 27.4963 21.5284 26.528 21.525H16.7358C14.7847 21.525 12.9134 20.7312 11.5337 19.3184C10.154 17.9055 9.37891 15.9893 9.37891 13.9912Z" stroke="white" stroke-width="2" stroke-miterlimit="10"/>
<path d="M-0.439453 61.6874V59.0624C-0.405618 53.0885 1.9338 47.3708 6.06849 43.1564C10.2032 38.942 15.7976 36.573 21.6313 36.5662C27.4828 36.5731 33.0926 38.9565 37.2303 43.1936C41.3679 47.4306 43.6954 53.1753 43.7021 59.1674V61.7924" stroke="white" stroke-width="2" stroke-miterlimit="10"/>
<path d="M21.6308 56.6738C22.9899 56.6738 24.0916 55.5455 24.0916 54.1538C24.0916 52.762 22.9899 51.6338 21.6308 51.6338C20.2717 51.6338 19.1699 52.762 19.1699 54.1538C19.1699 55.5455 20.2717 56.6738 21.6308 56.6738Z" stroke="white" stroke-width="2" stroke-miterlimit="10"/>
<path d="M24.0918 61.6876V54.1538" stroke="white" stroke-width="2" stroke-miterlimit="10"/>
<path d="M9.37891 36.5925L21.6319 51.6338L33.8849 36.5925" stroke="white" stroke-width="2" stroke-miterlimit="10"/>
</g>
<defs>
<clipPath id="clip0_2060_1103">
<rect width="48" height="63" fill="white"/>
</clipPath>
</defs>
</svg>
