<svg width="62" height="65" viewBox="0 0 62 65" fill="none" xmlns="http://www.w3.org/2000/svg">
<g clip-path="url(#clip0_2060_1091)">
<path d="M43.502 4.51001C46.0713 5.80936 48.4171 7.50985 50.4512 9.54751C54.0088 13.1211 56.5148 17.6046 57.6948 22.5071C58.8749 27.4096 58.6837 32.5423 57.142 37.3434C55.6003 42.1445 52.7676 46.4289 48.9539 49.7279C45.1403 53.0269 40.4926 55.2132 35.5195 56.0475" stroke="white" stroke-width="3" stroke-miterlimit="10"/>
<path d="M18.4952 53.4899C15.9259 52.1905 13.5801 50.4901 11.546 48.4524C7.98844 44.8788 5.48247 40.3953 4.30237 35.4928C3.12227 30.5903 3.31354 25.4576 4.85522 20.6565C6.3969 15.8554 9.2296 11.571 13.0433 8.27201C16.857 4.97305 21.5046 2.78675 26.4777 1.95239" stroke="white" stroke-width="3" stroke-miterlimit="10"/>
<path d="M43.5039 13.9909V3.99341H53.5014" stroke="white" stroke-width="3" stroke-miterlimit="10"/>
<path d="M18.4975 44.0093V54.0068H8.5" stroke="white" stroke-width="3" stroke-miterlimit="10"/>
<path d="M40.6349 31.8674C40.6349 34.423 39.6197 36.8739 37.8127 38.681C36.0056 40.488 33.5547 41.5032 30.9991 41.5032C28.4435 41.5032 25.9926 40.488 24.1855 38.681C22.3785 36.8739 21.3633 34.423 21.3633 31.8674C21.3633 23.6266 30.9991 13.9907 30.9991 13.9907C30.9991 13.9907 40.6349 23.6266 40.6349 31.8674Z" stroke="white" stroke-width="3" stroke-miterlimit="10"/>
</g>
<defs>
<clipPath id="clip0_2060_1091">
<rect width="62" height="64.7322" fill="white" transform="translate(0 0.203369)"/>
</clipPath>
</defs>
</svg>
